MutatorSansInstance_400-600.ufo
<glyph name="comma" format="2">
  <advance width="260"/>
  <unicode hex="002C"/>
  <outline>
    <contour>
      <point x="183" y="0" type="line"/>
      <point x="183" y="228" type="line"/>
      <point x="77" y="228" type="line"/>
      <point x="77" y="0" type="line"/>
      <point x="128" y="-11" type="line"/>
      <point x="118" y="12" type="line"/>
      <point x="96" y="-113" type="line"/>
      <point x="132" y="-115" type="line"/>
    </contour>
  </outline>
</glyph>
<glyph name="period" format="2">
  <advance width="260"/>
  <unicode hex="002E"/>
  <outline>
    <contour>
      <point x="77" y="0" type="line"/>
      <point x="183" y="0" type="line"/>
      <point x="183" y="228" type="line"/>
      <point x="77" y="228" type="line"/>
    </contour>
  </outline>
</glyph>
<glyph name="A" format="2">
  <advance width="956"/>
  <unicode hex="0041"/>
  <outline>
    <contour>
      <point x="33" y="0" type="line"/>
      <point x="177" y="0" type="line"/>
      <point x="477" y="740" type="line"/>
      <point x="352" y="740" type="line"/>
    </contour>
    <contour>
      <point x="178" y="168" type="line"/>
      <point x="740" y="168" type="line"/>
      <point x="740" y="274" type="line"/>
      <point x="178" y="274" type="line"/>
    </contour>
    <contour>
      <point x="729" y="0" type="line"/>
      <point x="926" y="0" type="line"/>
      <point x="606" y="740" type="line"/>
      <point x="420" y="740" type="line"/>
    </contour>
    <contour>
      <point x="379" y="614" type="line"/>
      <point x="558" y="614" type="line"/>
      <point x="558" y="740" type="line"/>
      <point x="379" y="740" type="line"/>
    </contour>
  </outline>
</glyph>
<glyph name="B" format="2">
  <advance width="954"/>
  <unicode hex="0042"/>
  <outline>
    <contour>
      <point x="77" y="0" type="line"/>
      <point x="251" y="0" type="line"/>
      <point x="251" y="740" type="line"/>
      <point x="77" y="740" type="line"/>
    </contour>
    <contour>
      <point x="222" y="336" type="line"/>
      <point x="610" y="336" type="line" smooth="yes"/>
      <point x="693" y="336"/>
      <point x="736" y="295"/>
      <point x="736" y="225" type="curve" smooth="yes"/>
      <point x="736" y="157"/>
      <point x="692" y="117"/>
      <point x="608" y="117" type="curve" smooth="yes"/>
      <point x="222" y="117" type="line"/>
      <point x="222" y="0" type="line"/>
      <point x="652" y="0" type="line" smooth="yes"/>
      <point x="848" y="0"/>
      <point x="909" y="86"/>
      <point x="909" y="202" type="curve" smooth="yes"/>
      <point x="909" y="306"/>
      <point x="853" y="376"/>
      <point x="742" y="391" type="curve"/>
      <point x="731" y="359" type="line"/>
      <point x="817" y="378"/>
      <point x="874" y="441"/>
      <point x="874" y="535" type="curve" smooth="yes"/>
      <point x="874" y="655"/>
      <point x="809" y="740"/>
      <point x="611" y="740" type="curve" smooth="yes"/>
      <point x="222" y="740" type="line"/>
      <point x="222" y="628" type="line"/>
      <point x="574" y="628" type="line" smooth="yes"/>
      <point x="663" y="628"/>
      <point x="702" y="588"/>
      <point x="702" y="521" type="curve" smooth="yes"/>
      <point x="702" y="449"/>
      <point x="659" y="411"/>
      <point x="574" y="411" type="curve" smooth="yes"/>
      <point x="222" y="411" type="line"/>
    </contour>
  </outline>
</glyph>
<glyph name="C" format="2">
  <advance width="1050"/>
  <unicode hex="0043"/>
  <outline>
    <contour>
      <point x="824" y="310" type="line"/>
      <point x="802" y="171"/>
      <point x="702" y="117"/>
      <point x="552" y="117" type="curve" smooth="yes"/>
      <point x="507" y="117" type="line" smooth="yes"/>
      <point x="338" y="117"/>
      <point x="233" y="189"/>
      <point x="233" y="372" type="curve" smooth="yes"/>
      <point x="233" y="554"/>
      <point x="338" y="623"/>
      <point x="507" y="623" type="curve" smooth="yes"/>
      <point x="552" y="623" type="line" smooth="yes"/>
      <point x="701" y="623"/>
      <point x="800" y="571"/>
      <point x="823" y="437" type="curve"/>
      <point x="996" y="455" type="line"/>
      <point x="963" y="658"/>
      <point x="803" y="750"/>
      <point x="566" y="750" type="curve" smooth="yes"/>
      <point x="493" y="750" type="line" smooth="yes"/>
      <point x="223" y="750"/>
      <point x="54" y="633"/>
      <point x="54" y="372" type="curve" smooth="yes"/>
      <point x="54" y="110"/>
      <point x="223" y="-10"/>
      <point x="493" y="-10" type="curve" smooth="yes"/>
      <point x="566" y="-10" type="line" smooth="yes"/>
      <point x="805" y="-10"/>
      <point x="965" y="85"/>
      <point x="997" y="293" type="curve"/>
    </contour>
  </outline>
</glyph>
<glyph name="D" format="2">
  <advance width="956"/>
  <unicode hex="0044"/>
  <outline>
    <contour>
      <point x="77" y="0" type="line"/>
      <point x="248" y="0" type="line"/>
      <point x="248" y="740" type="line"/>
      <point x="77" y="740" type="line"/>
    </contour>
    <contour>
      <point x="216" y="617" type="line"/>
      <point x="439" y="617" type="line" smooth="yes"/>
      <point x="613" y="617"/>
      <point x="724" y="554"/>
      <point x="724" y="372" type="curve" smooth="yes"/>
      <point x="724" y="189"/>
      <point x="613" y="123"/>
      <point x="439" y="123" type="curve" smooth="yes"/>
      <point x="215" y="123" type="line"/>
      <point x="215" y="0" type="line"/>
      <point x="453" y="0" type="line" smooth="yes"/>
      <point x="727" y="0"/>
      <point x="903" y="111"/>
      <point x="903" y="372" type="curve" smooth="yes"/>
      <point x="903" y="632"/>
      <point x="727" y="740"/>
      <point x="453" y="740" type="curve" smooth="yes"/>
      <point x="216" y="740" type="line"/>
    </contour>
  </outline>
</glyph>
<glyph name="E" format="2">
  <advance width="874"/>
  <unicode hex="0045"/>
  <anchor x="431" y="784" name="top"/>
  <outline>
    <contour>
      <point x="78" y="0" type="line"/>
      <point x="250" y="0" type="line"/>
      <point x="250" y="740" type="line"/>
      <point x="78" y="740" type="line"/>
    </contour>
    <contour>
      <point x="126" y="610" type="line"/>
      <point x="802" y="610" type="line"/>
      <point x="802" y="740" type="line"/>
      <point x="126" y="740" type="line"/>
    </contour>
    <contour>
      <point x="126" y="0" type="line"/>
      <point x="802" y="0" type="line"/>
      <point x="802" y="130" type="line"/>
      <point x="126" y="130" type="line"/>
    </contour>
    <contour>
      <point x="126" y="326" type="line"/>
      <point x="697" y="326" type="line"/>
      <point x="697" y="416" type="line"/>
      <point x="126" y="416" type="line"/>
    </contour>
  </outline>
</glyph>
<glyph name="F" format="2">
  <advance width="890"/>
  <unicode hex="0046"/>
  <outline>
    <contour>
      <point x="77" y="0" type="line"/>
      <point x="253" y="0" type="line"/>
      <point x="253" y="740" type="line"/>
      <point x="77" y="740" type="line"/>
    </contour>
    <contour>
      <point x="126" y="614" type="line"/>
      <point x="813" y="614" type="line"/>
      <point x="813" y="740" type="line"/>
      <point x="126" y="740" type="line"/>
    </contour>
    <contour>
      <point x="126" y="282" type="line"/>
      <point x="772" y="282" type="line"/>
      <point x="772" y="392" type="line"/>
      <point x="126" y="392" type="line"/>
    </contour>
  </outline>
</glyph>
<glyph name="G" format="2">
  <advance width="1087"/>
  <unicode hex="0047"/>
  <outline>
    <contour>
      <point x="450" y="304" type="line"/>
      <point x="852" y="304" type="line"/>
      <point x="852" y="216" type="line"/>
      <point x="925" y="0" type="line"/>
      <point x="1015" y="0" type="line"/>
      <point x="1015" y="366" type="line"/>
      <point x="450" y="366" type="line"/>
    </contour>
    <contour>
      <point x="845" y="318" type="line"/>
      <point x="823" y="174"/>
      <point x="723" y="117"/>
      <point x="570" y="117" type="curve" smooth="yes"/>
      <point x="507" y="117" type="line" smooth="yes"/>
      <point x="338" y="117"/>
      <point x="233" y="189"/>
      <point x="233" y="372" type="curve" smooth="yes"/>
      <point x="233" y="554"/>
      <point x="341" y="623"/>
      <point x="512" y="623" type="curve" smooth="yes"/>
      <point x="574" y="623" type="line" smooth="yes"/>
      <point x="724" y="623"/>
      <point x="822" y="571"/>
      <point x="844" y="437" type="curve"/>
      <point x="1012" y="455" type="line"/>
      <point x="979" y="658"/>
      <point x="823" y="750"/>
      <point x="586" y="750" type="curve" smooth="yes"/>
      <point x="495" y="750" type="line" smooth="yes"/>
      <point x="225" y="750"/>
      <point x="54" y="633"/>
      <point x="54" y="372" type="curve" smooth="yes"/>
      <point x="54" y="110"/>
      <point x="223" y="-10"/>
      <point x="493" y="-10" type="curve" smooth="yes"/>
      <point x="540" y="-10" type="line" smooth="yes"/>
      <point x="779" y="-10"/>
      <point x="931" y="88"/>
      <point x="961" y="300" type="curve"/>
    </contour>
  </outline>
</glyph>
<glyph name="H" format="2">
  <advance width="967"/>
  <unicode hex="0048"/>
  <outline>
    <contour>
      <point x="77" y="0" type="line"/>
      <point x="253" y="0" type="line"/>
      <point x="253" y="740" type="line"/>
      <point x="77" y="740" type="line"/>
    </contour>
    <contour>
      <point x="148" y="307" type="line"/>
      <point x="821" y="307" type="line"/>
      <point x="821" y="432" type="line"/>
      <point x="148" y="432" type="line"/>
    </contour>
    <contour>
      <point x="714" y="0" type="line"/>
      <point x="890" y="0" type="line"/>
      <point x="890" y="740" type="line"/>
      <point x="714" y="740" type="line"/>
    </contour>
  </outline>
</glyph>
<glyph name="I" format="2">
  <advance width="746"/>
  <unicode hex="0049"/>
  <outline>
    <contour>
      <point x="287" y="0" type="line"/>
      <point x="463" y="0" type="line"/>
      <point x="463" y="740" type="line"/>
      <point x="287" y="740" type="line"/>
    </contour>
    <contour>
      <point x="77" y="609" type="line"/>
      <point x="669" y="609" type="line"/>
      <point x="669" y="740" type="line"/>
      <point x="77" y="740" type="line"/>
    </contour>
    <contour>
      <point x="77" y="0" type="line"/>
      <point x="669" y="0" type="line"/>
      <point x="669" y="131" type="line"/>
      <point x="77" y="131" type="line"/>
    </contour>
  </outline>
</glyph>
<glyph name="J" format="2">
  <advance width="726"/>
  <unicode hex="004A"/>
  <outline>
    <contour>
      <point x="222" y="-10" type="curve" smooth="yes"/>
      <point x="485" y="-10"/>
      <point x="649" y="99"/>
      <point x="649" y="339" type="curve" smooth="yes"/>
      <point x="649" y="740" type="line"/>
      <point x="470" y="740" type="line"/>
      <point x="470" y="357" type="line" smooth="yes"/>
      <point x="470" y="192"/>
      <point x="373" y="128"/>
      <point x="217" y="128" type="curve" smooth="yes"/>
      <point x="181" y="128"/>
      <point x="141" y="131"/>
      <point x="103" y="139" type="curve"/>
      <point x="77" y="5" type="line"/>
      <point x="121" y="-5"/>
      <point x="169" y="-10"/>
    </contour>
  </outline>
</glyph>
<glyph name="K" format="2">
  <advance width="917"/>
  <unicode hex="004B"/>
  <outline>
    <contour>
      <point x="77" y="0" type="line"/>
      <point x="253" y="0" type="line"/>
      <point x="253" y="740" type="line"/>
      <point x="77" y="740" type="line"/>
    </contour>
    <contour>
      <point x="196" y="311" type="line"/>
      <point x="291" y="311" type="line"/>
      <point x="648" y="0" type="line"/>
      <point x="876" y="0" type="line"/>
      <point x="430" y="419" type="line"/>
      <point x="301" y="388" type="line"/>
      <point x="196" y="388" type="line"/>
    </contour>
    <contour>
      <point x="272" y="368" type="line"/>
      <point x="384" y="317" type="line"/>
      <point x="870" y="740" type="line"/>
      <point x="666" y="740" type="line"/>
    </contour>
  </outline>
</glyph>
<glyph name="L" format="2">
  <advance width="783"/>
  <unicode hex="004C"/>
  <outline>
    <contour>
      <point x="77" y="0" type="line"/>
      <point x="253" y="0" type="line"/>
      <point x="253" y="740" type="line"/>
      <point x="77" y="740" type="line"/>
    </contour>
    <contour>
      <point x="126" y="0" type="line"/>
      <point x="753" y="0" type="line"/>
      <point x="753" y="129" type="line"/>
      <point x="126" y="129" type="line"/>
    </contour>
  </outline>
</glyph>
<glyph name="M" format="2">
  <advance width="1021"/>
  <unicode hex="004D"/>
  <outline>
    <contour>
      <point x="77" y="0" type="line"/>
      <point x="218" y="0" type="line"/>
      <point x="218" y="740" type="line"/>
      <point x="77" y="740" type="line"/>
    </contour>
    <contour>
      <point x="944" y="0" type="line"/>
      <point x="944" y="740" type="line"/>
      <point x="803" y="740" type="line"/>
      <point x="803" y="0" type="line"/>
    </contour>
    <contour>
      <point x="865" y="561" type="line"/>
      <point x="803" y="740" type="line"/>
      <point x="491" y="395" type="line"/>
      <point x="530" y="395" type="line"/>
      <point x="218" y="740" type="line"/>
      <point x="156" y="561" type="line"/>
      <point x="479" y="210" type="line"/>
      <point x="542" y="210" type="line"/>
    </contour>
  </outline>
</glyph>
<glyph name="N" format="2">
  <advance width="976"/>
  <unicode hex="004E"/>
  <outline>
    <contour>
      <point x="77" y="0" type="line"/>
      <point x="216" y="0" type="line"/>
      <point x="216" y="740" type="line"/>
      <point x="77" y="740" type="line"/>
    </contour>
    <contour>
      <point x="149" y="586" type="line"/>
      <point x="759" y="0" type="line"/>
      <point x="827" y="154" type="line"/>
      <point x="216" y="740" type="line"/>
    </contour>
    <contour>
      <point x="759" y="0" type="line"/>
      <point x="899" y="0" type="line"/>
      <point x="899" y="740" type="line"/>
      <point x="759" y="740" type="line"/>
    </contour>
  </outline>
</glyph>
<glyph name="O" format="2">
  <advance width="1063"/>
  <unicode hex="004F"/>
  <outline>
    <contour>
      <point x="493" y="-10" type="curve" smooth="yes"/>
      <point x="569" y="-10" type="line" smooth="yes"/>
      <point x="839" y="-10"/>
      <point x="1009" y="110"/>
      <point x="1009" y="372" type="curve" smooth="yes"/>
      <point x="1009" y="633"/>
      <point x="839" y="750"/>
      <point x="569" y="750" type="curve" smooth="yes"/>
      <point x="493" y="750" type="line" smooth="yes"/>
      <point x="223" y="750"/>
      <point x="54" y="633"/>
      <point x="54" y="372" type="curve" smooth="yes"/>
      <point x="54" y="110"/>
      <point x="223" y="-10"/>
    </contour>
    <contour>
      <point x="507" y="117" type="line" smooth="yes"/>
      <point x="338" y="117"/>
      <point x="233" y="189"/>
      <point x="233" y="372" type="curve" smooth="yes"/>
      <point x="233" y="554"/>
      <point x="338" y="623"/>
      <point x="507" y="623" type="curve" smooth="yes"/>
      <point x="555" y="623" type="line" smooth="yes"/>
      <point x="725" y="623"/>
      <point x="830" y="554"/>
      <point x="830" y="372" type="curve" smooth="yes"/>
      <point x="830" y="189"/>
      <point x="725" y="117"/>
      <point x="555" y="117" type="curve" smooth="yes"/>
    </contour>
  </outline>
</glyph>
<glyph name="P" format="2">
  <advance width="897"/>
  <unicode hex="0050"/>
  <outline>
    <contour>
      <point x="77" y="0" type="line"/>
      <point x="253" y="0" type="line"/>
      <point x="253" y="740" type="line"/>
      <point x="77" y="740" type="line"/>
    </contour>
    <contour>
      <point x="189" y="607" type="line"/>
      <point x="494" y="607" type="line" smooth="yes"/>
      <point x="652" y="607"/>
      <point x="706" y="549"/>
      <point x="706" y="446" type="curve" smooth="yes"/>
      <point x="706" y="341"/>
      <point x="652" y="285"/>
      <point x="494" y="285" type="curve" smooth="yes"/>
      <point x="189" y="285" type="line"/>
      <point x="189" y="152" type="line"/>
      <point x="484" y="152" type="line" smooth="yes"/>
      <point x="785" y="152"/>
      <point x="867" y="268"/>
      <point x="867" y="446" type="curve" smooth="yes"/>
      <point x="867" y="624"/>
      <point x="785" y="740"/>
      <point x="484" y="740" type="curve" smooth="yes"/>
      <point x="189" y="740" type="line"/>
    </contour>
  </outline>
</glyph>
<glyph name="Q" format="2">
  <advance width="1063"/>
  <unicode hex="0051"/>
  <outline>
    <contour>
      <point x="534" y="-130" type="line"/>
      <point x="711" y="-130" type="line"/>
      <point x="600" y="76" type="line"/>
      <point x="435" y="65" type="line"/>
    </contour>
    <component base="O"/>
  </outline>
</glyph>
<glyph name="R" format="2">
  <advance width="922"/>
  <unicode hex="0052"/>
  <outline>
    <contour>
      <point x="674" y="0" type="line"/>
      <point x="863" y="0" type="line"/>
      <point x="775" y="121" type="line" smooth="yes"/>
      <point x="724" y="180"/>
      <point x="684" y="213"/>
      <point x="631" y="212" type="curve"/>
      <point x="519" y="212" type="line"/>
    </contour>
    <contour>
      <point x="77" y="0" type="line"/>
      <point x="253" y="0" type="line"/>
      <point x="253" y="740" type="line"/>
      <point x="77" y="740" type="line"/>
    </contour>
    <contour>
      <point x="189" y="607" type="line"/>
      <point x="499" y="607" type="line" smooth="yes"/>
      <point x="654" y="607"/>
      <point x="706" y="549"/>
      <point x="706" y="446" type="curve" smooth="yes"/>
      <point x="706" y="341"/>
      <point x="654" y="285"/>
      <point x="499" y="285" type="curve" smooth="yes"/>
      <point x="189" y="285" type="line"/>
      <point x="189" y="176" type="line"/>
      <point x="487" y="176" type="line" smooth="yes"/>
      <point x="785" y="176"/>
      <point x="869" y="288"/>
      <point x="869" y="458" type="curve" smooth="yes"/>
      <point x="869" y="629"/>
      <point x="783" y="740"/>
      <point x="486" y="740" type="curve" smooth="yes"/>
      <point x="189" y="740" type="line"/>
    </contour>
  </outline>
</glyph>
<glyph name="S" format="2">
  <advance width="928"/>
  <unicode hex="0053"/>
  <outline>
    <contour>
      <point x="867" y="208" type="curve" smooth="yes"/>
      <point x="867" y="356"/>
      <point x="779" y="409"/>
      <point x="548" y="432" type="curve" smooth="yes"/>
      <point x="416" y="446" type="line" smooth="yes"/>
      <point x="281" y="462"/>
      <point x="222" y="484"/>
      <point x="222" y="541" type="curve" smooth="yes"/>
      <point x="222" y="595"/>
      <point x="281" y="630"/>
      <point x="427" y="630" type="curve" smooth="yes"/>
      <point x="497" y="630" type="line" smooth="yes"/>
      <point x="634" y="630"/>
      <point x="740" y="609"/>
      <point x="823" y="580" type="curve"/>
      <point x="849" y="693" type="line"/>
      <point x="764" y="724"/>
      <point x="637" y="750"/>
      <point x="517" y="750" type="curve" smooth="yes"/>
      <point x="467" y="750" type="line" smooth="yes"/>
      <point x="193" y="750"/>
      <point x="74" y="672"/>
      <point x="74" y="529" type="curve" smooth="yes"/>
      <point x="74" y="393"/>
      <point x="172" y="336"/>
      <point x="392" y="313" type="curve" smooth="yes"/>
      <point x="521" y="299" type="line" smooth="yes"/>
      <point x="661" y="280"/>
      <point x="716" y="265"/>
      <point x="716" y="204" type="curve" smooth="yes"/>
      <point x="716" y="145"/>
      <point x="653" y="110"/>
      <point x="486" y="110" type="curve" smooth="yes"/>
      <point x="418" y="110" type="line" smooth="yes"/>
      <point x="285" y="110"/>
      <point x="172" y="131"/>
      <point x="82" y="162" type="curve"/>
      <point x="58" y="48" type="line"/>
      <point x="151" y="15"/>
      <point x="285" y="-9"/>
      <point x="400" y="-9" type="curve" smooth="yes"/>
      <point x="454" y="-9" type="line" smooth="yes"/>
      <point x="759" y="-9"/>
      <point x="867" y="78"/>
    </contour>
  </outline>
</glyph>
<glyph name="T" format="2">
  <advance width="918"/>
  <unicode hex="0054"/>
  <outline>
    <contour>
      <point x="371" y="0" type="line"/>
      <point x="547" y="0" type="line"/>
      <point x="547" y="740" type="line"/>
      <point x="371" y="740" type="line"/>
    </contour>
    <contour>
      <point x="30" y="604" type="line"/>
      <point x="888" y="604" type="line"/>
      <point x="888" y="740" type="line"/>
      <point x="30" y="740" type="line"/>
    </contour>
  </outline>
</glyph>
<glyph name="U" format="2">
  <advance width="976"/>
  <unicode hex="0055"/>
  <outline>
    <contour>
      <point x="488" y="-10" type="curve" smooth="yes"/>
      <point x="742" y="-10"/>
      <point x="892" y="97"/>
      <point x="892" y="329" type="curve" smooth="yes"/>
      <point x="892" y="740" type="line"/>
      <point x="713" y="740" type="line"/>
      <point x="713" y="321" type="line" smooth="yes"/>
      <point x="713" y="180"/>
      <point x="627" y="124"/>
      <point x="488" y="124" type="curve" smooth="yes"/>
      <point x="349" y="124"/>
      <point x="263" y="180"/>
      <point x="263" y="321" type="curve" smooth="yes"/>
      <point x="263" y="740" type="line"/>
      <point x="84" y="740" type="line"/>
      <point x="84" y="329" type="line" smooth="yes"/>
      <point x="84" y="97"/>
      <point x="233" y="-10"/>
    </contour>
  </outline>
</glyph>
<glyph name="V" format="2">
  <advance width="952"/>
  <unicode hex="0056"/>
  <outline>
    <contour>
      <point x="926" y="740" type="line"/>
      <point x="781" y="740" type="line"/>
      <point x="477" y="0" type="line"/>
      <point x="604" y="0" type="line"/>
    </contour>
    <contour>
      <point x="224" y="740" type="line"/>
      <point x="26" y="740" type="line"/>
      <point x="348" y="0" type="line"/>
      <point x="535" y="0" type="line"/>
    </contour>
    <contour>
      <point x="578" y="126" type="line"/>
      <point x="396" y="126" type="line"/>
      <point x="396" y="0" type="line"/>
      <point x="578" y="0" type="line"/>
    </contour>
  </outline>
</glyph>
<glyph name="W" format="2">
  <advance width="1088"/>
  <unicode hex="0057"/>
  <outline>
    <contour>
      <point x="1061" y="740" type="line"/>
      <point x="904" y="740" type="line"/>
      <point x="750" y="145" type="line"/>
      <point x="769" y="145" type="line"/>
      <point x="610" y="740" type="line"/>
      <point x="493" y="740" type="line"/>
      <point x="342" y="142" type="line"/>
      <point x="363" y="142" type="line"/>
      <point x="203" y="740" type="line"/>
      <point x="26" y="740" type="line"/>
      <point x="225" y="0" type="line"/>
      <point x="395" y="0" type="line"/>
      <point x="545" y="568" type="line"/>
      <point x="516" y="567" type="line"/>
      <point x="682" y="0" type="line"/>
      <point x="866" y="0" type="line"/>
    </contour>
  </outline>
</glyph>
<glyph name="X" format="2">
  <advance width="890"/>
  <unicode hex="0058"/>
  <outline>
    <contour>
      <point x="654" y="0" type="line"/>
      <point x="865" y="0" type="line"/>
      <point x="513" y="411" type="line"/>
      <point x="242" y="740" type="line"/>
      <point x="31" y="740" type="line"/>
      <point x="371" y="353" type="line"/>
    </contour>
    <contour>
      <point x="26" y="-1" type="line"/>
      <point x="198" y="0" type="line"/>
      <point x="446" y="333" type="line"/>
      <point x="521" y="339" type="line"/>
      <point x="859" y="740" type="line"/>
      <point x="686" y="740" type="line"/>
      <point x="437" y="421" type="line"/>
      <point x="360" y="413" type="line"/>
    </contour>
  </outline>
</glyph>
<glyph name="Y" format="2">
  <advance width="866"/>
  <unicode hex="0059"/>
  <outline>
    <contour>
      <point x="844" y="740" type="line"/>
      <point x="695" y="740" type="line"/>
      <point x="408" y="205" type="line"/>
      <point x="518" y="194" type="line"/>
    </contour>
    <contour>
      <point x="210" y="740" type="line"/>
      <point x="22" y="740" type="line"/>
      <point x="347" y="194" type="line"/>
      <point x="505" y="205" type="line"/>
    </contour>
    <contour>
      <point x="521" y="271" type="line"/>
      <point x="345" y="271" type="line"/>
      <point x="345" y="0" type="line"/>
      <point x="521" y="0" type="line"/>
    </contour>
  </outline>
</glyph>
<glyph name="Z" format="2">
  <advance width="947"/>
  <unicode hex="005A"/>
  <outline>
    <contour>
      <point x="77" y="129" type="line"/>
      <point x="279" y="92" type="line"/>
      <point x="870" y="611" type="line"/>
      <point x="669" y="648" type="line"/>
    </contour>
    <contour>
      <point x="77" y="611" type="line"/>
      <point x="870" y="611" type="line"/>
      <point x="870" y="740" type="line"/>
      <point x="77" y="740" type="line"/>
    </contour>
    <contour>
      <point x="77" y="0" type="line"/>
      <point x="870" y="0" type="line"/>
      <point x="870" y="129" type="line"/>
      <point x="77" y="129" type="line"/>
    </contour>
  </outline>
</glyph>
